<?xml version="1.0" encoding="UTF-8"?>
<svg xmlns="http://www.w3.org/2000/svg" xmlns:xlink="http://www.w3.org/1999/xlink" width="25px" height="25px" viewBox="0 0 25 25" version="1.1">
<defs>
<clipPath id="clip1">
  <path d="M 0 0 L 25 0 L 25 20.75 L 0 20.75 Z M 0 0 "/>
</clipPath>
<clipPath id="clip2">
  <path d="M 3 14 L 22 14 L 22 25 L 3 25 Z M 3 14 "/>
</clipPath>
<clipPath id="clip3">
  <path d="M 24.167969 12.5 C 24.167969 18.941406 18.941406 24.167969 12.5 24.167969 C 6.058594 24.167969 0.832031 18.941406 0.832031 12.5 C 0.832031 6.058594 6.058594 0.832031 12.5 0.832031 C 18.941406 0.832031 24.167969 6.058594 24.167969 12.5 Z M 24.167969 12.5 "/>
</clipPath>
</defs>
<g id="surface1">
<g clip-path="url(#clip1)" clip-rule="nonzero">
<path style=" stroke:none;fill-rule:nonzero;fill:rgb(100%,100%,100%);fill-opacity:1;" d="M 24.167969 12.5 C 24.167969 18.941406 18.941406 24.167969 12.5 24.167969 C 6.058594 24.167969 0.832031 18.941406 0.832031 12.5 C 0.832031 6.058594 6.058594 0.832031 12.5 0.832031 C 18.941406 0.832031 24.167969 6.058594 24.167969 12.5 Z M 24.167969 12.5 "/>
</g>
<path style=" stroke:none;fill-rule:nonzero;fill:rgb(0%,0%,0%);fill-opacity:1;" d="M 17.292969 9.582031 C 17.292969 12.230469 15.144531 14.375 12.5 14.375 C 9.855469 14.375 7.707031 12.230469 7.707031 9.582031 C 7.707031 6.9375 9.855469 4.792969 12.5 4.792969 C 15.144531 4.792969 17.292969 6.9375 17.292969 9.582031 Z M 17.292969 9.582031 "/>
<g clip-path="url(#clip2)" clip-rule="nonzero">
<g clip-path="url(#clip3)" clip-rule="nonzero">
<path style=" stroke:none;fill-rule:nonzero;fill:rgb(0%,0%,0%);fill-opacity:1;" d="M 21.042969 22.917969 C 21.042969 27.632812 17.21875 31.457031 12.5 31.457031 C 7.78125 31.457031 3.957031 27.632812 3.957031 22.917969 C 3.957031 18.199219 7.78125 14.375 12.5 14.375 C 17.21875 14.375 21.042969 18.199219 21.042969 22.917969 Z M 21.042969 22.917969 "/>
</g>
</g>
</g>
</svg>

