<svg width="24" height="23" viewBox="0 0 24 23" fill="none" xmlns="http://www.w3.org/2000/svg">
<path d="M10 4C9.0111 4 8.0444 4.29324 7.22215 4.84265C6.39991 5.39206 5.75904 6.17295 5.3806 7.08658C5.00217 8.00021 4.90315 9.00554 5.09608 9.97545C5.289 10.9454 5.76521 11.8363 6.46447 12.5355C7.16373 13.2348 8.05465 13.711 9.02455 13.9039C9.99446 14.0968 10.9998 13.9978 11.9134 13.6194C12.827 13.241 13.6079 12.6001 14.1573 11.7778C14.7068 10.9556 15 9.9889 15 9C14.9984 7.6744 14.4712 6.40353 13.5338 5.46619C12.5965 4.52885 11.3256 4.00156 10 4V4ZM13.9495 8.5H12.9707C12.9314 7.52706 12.6876 6.57331 12.2552 5.70087C12.7193 6.02128 13.1103 6.4364 13.4023 6.91887C13.6943 7.40134 13.8808 7.94022 13.9495 8.5V8.5ZM9.5 5.16307V8.5H8.02778C8.13958 6.81232 8.78798 5.57422 9.5 5.16307ZM9.5 9.5V12.8369C8.78798 12.4258 8.13958 11.1877 8.02778 9.5H9.5ZM10.5 12.8369V9.5H11.9722C11.8604 11.1877 11.212 12.4258 10.5 12.8369ZM10.5 8.5V5.16307C11.212 5.57422 11.8604 6.81232 11.9722 8.5H10.5ZM7.7448 5.70087C7.31237 6.57331 7.06859 7.52706 7.02935 8.5H6.05053C6.11918 7.94022 6.30567 7.40134 6.5977 6.91887C6.88973 6.4364 7.28069 6.02128 7.7448 5.70087V5.70087ZM6.05053 9.5H7.02935C7.06859 10.4729 7.31237 11.4267 7.7448 12.2991C7.28069 11.9787 6.88973 11.5636 6.5977 11.0811C6.30567 10.5987 6.11918 10.0598 6.05053 9.5V9.5ZM12.2552 12.2991C12.6876 11.4267 12.9314 10.4729 12.9707 9.5H13.9495C13.8808 10.0598 13.6943 10.5987 13.4023 11.0811C13.1103 11.5636 12.7193 11.9787 12.2552 12.2991V12.2991Z" fill="white"/>
<path d="M19 13.5V4.5C18.9992 3.8372 18.7356 3.20176 18.2669 2.73309C17.7982 2.26441 17.1628 2.00077 16.5 2H3.5C2.8372 2.00077 2.20176 2.26441 1.73309 2.73309C1.26441 3.20176 1.00077 3.8372 1 4.5V13.5C1.00077 14.1628 1.26441 14.7982 1.73309 15.2669C2.20176 15.7356 2.8372 15.9992 3.5 16H7V18.5C6.99993 18.5929 7.02574 18.6839 7.07453 18.7629C7.12332 18.8419 7.19316 18.9058 7.27621 18.9473C7.35926 18.9889 7.45225 19.0064 7.54473 18.9981C7.63721 18.9897 7.72554 18.9558 7.7998 18.9L11.6665 16H16.5C17.1628 15.9992 17.7982 15.7356 18.2669 15.2669C18.7356 14.7982 18.9992 14.1628 19 13.5ZM11.5 15C11.3919 14.9999 11.2866 15.035 11.2002 15.1L8 17.5V15.5C8.00004 15.4343 7.98713 15.3693 7.96202 15.3086C7.93691 15.2479 7.90008 15.1928 7.85364 15.1464C7.8072 15.0999 7.75207 15.0631 7.69139 15.038C7.63071 15.0129 7.56567 15 7.5 15H3.5C3.10231 14.9996 2.72103 14.8414 2.43982 14.5602C2.15861 14.279 2.00044 13.8977 2 13.5V4.5C2.00044 4.10231 2.15861 3.72103 2.43982 3.43982C2.72103 3.15861 3.10231 3.00044 3.5 3H16.5C16.8977 3.00044 17.279 3.15861 17.5602 3.43982C17.8414 3.72103 17.9996 4.10231 18 4.5V13.5C17.9996 13.8977 17.8414 14.279 17.5602 14.5602C17.279 14.8414 16.8977 14.9996 16.5 15H11.5Z" fill="white"/>
<path d="M20.4999 5C20.3673 5 20.2401 5.05268 20.1463 5.14645C20.0526 5.24021 19.9999 5.36739 19.9999 5.5C19.9999 5.63261 20.0526 5.75979 20.1463 5.85355C20.2401 5.94732 20.3673 6 20.4999 6C20.8976 6.00044 21.2789 6.15861 21.5601 6.43982C21.8413 6.72103 21.9994 7.10231 21.9999 7.5V16.5C21.9994 16.8977 21.8413 17.279 21.5601 17.5602C21.2789 17.8414 20.8976 17.9996 20.4999 18H16.4999C16.4342 18 16.3692 18.0129 16.3085 18.038C16.2478 18.0631 16.1927 18.0999 16.1462 18.1464C16.0998 18.1928 16.063 18.2479 16.0379 18.3086C16.0127 18.3693 15.9998 18.4343 15.9999 18.5V20.5L12.7997 18.1C12.6936 18.0205 12.5603 17.9864 12.429 18.0052C12.2978 18.024 12.1794 18.0941 12.0999 18.2002C12.0204 18.3063 11.9863 18.4396 12.005 18.5709C12.0238 18.7021 12.094 18.8205 12.2001 18.9L16.2001 21.9C16.2865 21.9651 16.3917 22.0002 16.4999 22C16.5655 22 16.6306 21.9871 16.6912 21.962C16.7519 21.9369 16.8071 21.9 16.8535 21.8536C16.8999 21.8072 16.9367 21.752 16.9619 21.6914C16.987 21.6307 16.9999 21.5657 16.9999 21.5V19H20.4999C21.1627 18.9992 21.7981 18.7356 22.2668 18.2669C22.7355 17.7982 22.9991 17.1628 22.9999 16.5V7.5C22.9991 6.8372 22.7355 6.20176 22.2668 5.73309C21.7981 5.26441 21.1627 5.00077 20.4999 5V5Z" fill="white"/>
</svg>
